<svg id="Capa_1" enable-background="new 0 0 512 512" height="512" viewBox="0 0 512 512" width="512" xmlns="http://www.w3.org/2000/svg"><g><path d="m512 322.785h-31.17v-155h-65v-45h-70v-25.021c0-22.044-17.935-39.979-39.979-39.979h-50.043c-22.044 0-39.979 17.935-39.979 39.979v25.021h-70v200h-29.021v-239.606c.001-45.679-37.162-83.179-82.84-83.179h-33.968v30.338h33.968c29.136 0 52.84 23.704 52.84 52.841l-.165 283.522c0 27.432 22.317 49.749 49.749 49.749h31.249c-13.654 9.478-22.617 25.26-22.617 43.104 0 28.919 23.527 52.446 52.447 52.446s52.447-23.527 52.447-52.446c0-17.844-8.964-33.625-22.617-43.104h144.043c-13.654 9.478-22.617 25.26-22.617 43.104 0 28.919 23.527 52.446 52.446 52.446 28.92 0 52.447-23.527 52.447-52.446 0-17.844-8.964-33.625-22.617-43.104h80.997zm-96.17-125h35v125h-35zm-31.191 124.513h-208.639v-30h208.639zm-138.809-224.534c0-5.502 4.477-9.979 9.979-9.979h50.043c5.502 0 9.979 4.477 9.979 9.979v25.021h-70v-25.021zm140 55.021v109.513h-210v-109.513zm-188.359 329.215c-12.377 0-22.447-10.069-22.447-22.446 0-12.378 10.07-22.447 22.447-22.447s22.447 10.069 22.447 22.447c0 12.377-10.07 22.446-22.447 22.446zm203.702 0c-12.377 0-22.446-10.069-22.446-22.446 0-12.378 10.069-22.447 22.446-22.447 12.378 0 22.447 10.069 22.447 22.447 0 12.377-10.069 22.446-22.447 22.446zm80.827-95.55h-345.607c-18.686 0-21-19.369-19.584-33.665h365.191z"/></g></svg>